<?xml version="1.0" standalone="no"?>
<!DOCTYPE svg PUBLIC "-//W3C//DTD SVG 20010904//EN"
 "http://www.w3.org/TR/2001/REC-SVG-20010904/DTD/svg10.dtd">
<svg version="1.0" xmlns="http://www.w3.org/2000/svg"
 width="200.000000pt" height="200.000000pt" viewBox="0 0 200.000000 200.000000"
 preserveAspectRatio="xMidYMid meet">
<metadata>
Created by potrace 1.14, written by Peter Selinger 2001-2017
</metadata>
<g transform="translate(0.000000,200.000000) scale(0.100000,-0.100000)"
fill="#000000" stroke="none">
<path d="M1107 1899 c-72 -17 -138 -59 -187 -121 l-32 -39 45 -45 c70 -70 92
-122 91 -224 0 -69 -4 -93 -23 -128 -27 -52 -22 -60 52 -93 68 -30 179 -34
249 -8 83 30 147 87 195 173 25 46 28 61 28 146 0 82 -4 102 -27 150 -70 147
-234 226 -391 189z m135 -58 c13 -1 15 -7 9 -28 -5 -21 -15 -29 -34 -31 -25
-3 -27 0 -27 31 0 28 4 35 18 32 9 -2 24 -4 34 -4z m164 -98 c33 -43 61 -111
60 -147 -1 -24 -6 -29 -28 -32 -25 -2 -33 5 -29 28 3 21 -45 105 -76 134 -34
31 -36 35 -23 59 13 24 14 24 42 7 16 -9 40 -31 54 -49z m-129 -97 c30 -33 39
-57 33 -96 -15 -112 -163 -148 -224 -55 -83 126 90 262 191 151z"/>
<path d="M1173 1622 c-26 -4 -40 -20 -43 -47 -4 -35 0 -44 24 -60 49 -32 106
12 92 70 -6 25 -41 42 -73 37z"/>
<path d="M636 1705 c-95 -33 -166 -133 -166 -234 1 -101 53 -184 145 -227 169
-80 359 49 351 237 -4 92 -64 180 -146 216 -47 21 -137 25 -184 8z m144 -130
c53 -27 77 -101 51 -155 -44 -91 -162 -99 -216 -16 -69 105 51 230 165 171z"/>
<path d="M678 1517 c-26 -20 -27 -66 -2 -91 21 -22 67 -20 87 2 50 55 -25 134
-85 89z"/>
<path d="M910 1225 c-19 -23 -95 -55 -149 -64 -58 -9 -144 7 -194 37 -21 12
-51 22 -68 22 l-29 0 -1 -92 c0 -109 0 -482 1 -551 l0 -47 532 2 532 3 -1 335
c-1 184 -2 338 -2 343 -2 18 -120 6 -176 -19 -116 -51 -233 -47 -350 11 -81
40 -78 40 -95 20z m-130 -317 c0 -172 -1 -188 -17 -189 -25 -1 -194 -1 -215 0
-17 1 -18 17 -18 184 0 101 2 186 4 188 2 2 59 4 125 4 l121 0 0 -187z m618
183 c8 -1 27 -14 43 -30 l29 -29 0 -189 c0 -188 0 -188 -26 -218 l-26 -30
-254 -1 -254 -2 -32 29 -33 28 -1 178 c0 98 4 190 8 205 10 28 41 53 73 59 15
3 429 3 473 0z m-806 -450 c8 -33 -4 -51 -33 -51 -25 0 -29 4 -29 28 0 35 2
37 34 38 16 1 26 -4 28 -15z m120 5 c4 -6 8 -21 8 -33 0 -19 -6 -23 -29 -23
-30 0 -41 17 -33 50 4 18 43 22 54 6z"/>
<path d="M591 905 l-2 -125 65 0 65 0 -1 125 0 125 -63 0 -63 0 -1 -125z"/>
<path d="M963 1032 c-28 -2 -46 -9 -51 -20 -11 -21 -9 -338 1 -348 13 -14 469
-11 483 3 18 18 15 339 -3 354 -12 11 -327 18 -430 11z m354 -186 c1 -1 -63
-34 -142 -74 l-145 -72 0 145 0 144 143 -71 c78 -39 143 -71 144 -72z"/>
<path d="M1095 845 c0 -19 2 -36 5 -37 3 -1 22 7 44 17 l38 18 -33 18 c-48 26
-55 24 -54 -16z"/>
<path d="M1808 1057 c-96 -75 -88 -59 -88 -183 l0 -111 32 -24 c17 -13 43 -33
57 -45 39 -32 68 -45 85 -38 14 5 16 35 16 220 0 118 -3 214 -7 215 -5 0 -16
2 -26 4 -9 2 -41 -15 -69 -38z"/>
<path d="M363 1062 c-23 -3 -23 -4 -23 -188 0 -168 1 -184 18 -185 9 0 24 -2
32 -4 13 -2 15 24 15 186 0 118 -4 190 -10 192 -5 2 -20 1 -32 -1z"/>
<path d="M90 875 l0 -125 64 0 c63 0 63 0 62 28 -1 24 3 27 32 30 l33 3 -3 62
c-3 60 -4 62 -33 67 -25 4 -30 10 -29 33 0 27 -1 27 -63 27 l-63 0 0 -125z"/>
<path d="M1598 958 c-2 -7 -4 -49 -4 -93 l1 -80 33 -3 32 -3 0 95 0 96 -29 0
c-16 0 -31 -6 -33 -12z"/>
<path d="M740 404 c-16 -37 -30 -70 -30 -74 0 -4 -6 -20 -14 -36 -18 -36 -86
-194 -86 -200 0 -2 20 -4 44 -4 40 0 45 3 56 33 7 17 24 57 37 87 14 30 31 69
38 85 7 17 24 58 39 91 14 34 26 67 26 73 0 6 -17 11 -40 11 -39 0 -40 -1 -70
-66z"/>
<path d="M1150 460 c0 -5 35 -91 77 -190 l77 -180 43 0 c24 0 43 2 43 5 0 2
-15 39 -34 82 -31 71 -56 130 -61 143 -1 3 -10 23 -19 45 -10 22 -24 55 -32
73 -12 29 -17 32 -53 32 -23 0 -41 -4 -41 -10z"/>
</g>
</svg>
